<svg width="139" height="139" viewBox="0 0 139 139" fill="none" xmlns="http://www.w3.org/2000/svg">
<path d="M37.6452 115.834C28.8612 115.834 21.3571 112.793 15.133 106.712C8.90886 100.631 5.79488 93.1979 5.79102 84.4139C5.79102 76.8847 8.05942 70.176 12.5962 64.2878C17.133 58.3996 23.0695 54.635 30.4056 52.9941C32.8188 44.1135 37.6452 36.9222 44.8848 31.4201C52.1243 25.918 60.3292 23.167 69.4993 23.167C80.7931 23.167 90.3744 27.1015 98.2434 34.9704C106.112 42.8394 110.045 52.4188 110.041 63.7087C116.701 64.4809 122.229 67.3535 126.623 72.3267C131.017 77.2998 133.212 83.1146 133.208 89.7712C133.208 97.0107 130.675 103.165 125.609 108.235C120.543 113.305 114.389 115.838 107.145 115.834H37.6452ZM37.6452 104.25H107.145C111.199 104.25 114.626 102.851 117.425 100.051C120.225 97.2521 121.624 93.8253 121.624 89.7712C121.624 85.717 120.225 82.2903 117.425 79.491C114.626 76.6916 111.199 75.292 107.145 75.292H98.4577V63.7087C98.4577 55.6969 95.6333 48.8665 89.9845 43.2177C84.3357 37.5689 77.5073 34.7465 69.4993 34.7503C61.4914 34.7542 54.663 37.5786 49.0142 43.2235C43.3654 48.8685 40.541 55.6969 40.541 63.7087H37.6452C32.0466 63.7087 27.2684 65.6875 23.3108 69.6451C19.3532 73.6028 17.3743 78.3809 17.3743 83.9795C17.3743 89.5781 19.3532 94.3562 23.3108 98.3139C27.2684 102.272 32.0466 104.25 37.6452 104.25Z" fill="white"/>
</svg>
