<svg width="138" height="138" viewBox="0 0 138 138" fill="none" xmlns="http://www.w3.org/2000/svg">
<path d="M69.0004 109.25C70.5254 109.25 71.988 109.856 73.0663 110.934C74.1446 112.012 74.7504 113.475 74.7504 115V120.75C74.7504 122.275 74.1446 123.738 73.0663 124.816C71.988 125.894 70.5254 126.5 69.0004 126.5C67.4754 126.5 66.0129 125.894 64.9346 124.816C63.8562 123.738 63.2504 122.275 63.2504 120.75V115C63.2504 113.475 63.8562 112.012 64.9346 110.934C66.0129 109.856 67.4754 109.25 69.0004 109.25ZM86.2504 97.75C87.6588 97.7502 89.0181 98.2673 90.0706 99.2031C91.123 100.139 91.7954 101.429 91.9602 102.827L92.0004 103.5V109.25C91.9988 110.716 91.4376 112.125 90.4316 113.191C89.4255 114.257 88.0505 114.898 86.5874 114.984C85.1244 115.07 83.6838 114.594 82.5599 113.653C81.436 112.712 80.7138 111.378 80.5407 109.923L80.5004 109.25V103.5C80.5004 101.975 81.1062 100.512 82.1846 99.4341C83.2629 98.3558 84.7254 97.75 86.2504 97.75ZM51.7504 97.75C53.2754 97.75 54.738 98.3558 55.8163 99.4341C56.8946 100.512 57.5004 101.975 57.5004 103.5V109.25C57.5004 110.775 56.8946 112.238 55.8163 113.316C54.738 114.394 53.2754 115 51.7504 115C50.2254 115 48.7629 114.394 47.6846 113.316C46.6062 112.238 46.0004 110.775 46.0004 109.25V103.5C46.0004 101.975 46.6062 100.512 47.6846 99.4341C48.7629 98.3558 50.2254 97.75 51.7504 97.75ZM69.0004 86.25C70.5254 86.25 71.988 86.8558 73.0663 87.9341C74.1446 89.0125 74.7504 90.475 74.7504 92V97.75C74.7504 99.275 74.1446 100.738 73.0663 101.816C71.988 102.894 70.5254 103.5 69.0004 103.5C67.4754 103.5 66.0129 102.894 64.9346 101.816C63.8562 100.738 63.2504 99.275 63.2504 97.75V92C63.2504 90.475 63.8562 89.0125 64.9346 87.9341C66.0129 86.8558 67.4754 86.25 69.0004 86.25ZM66.1254 11.5C73.7296 11.4977 81.1537 13.8149 87.4064 18.1423C93.6592 22.4697 98.4433 28.6015 101.12 35.719C107.343 37.4286 112.962 40.8488 117.338 45.5912C121.715 50.3336 124.675 56.2081 125.881 62.5478C127.087 68.8875 126.491 75.4384 124.161 81.4566C121.831 87.4747 117.861 92.7191 112.7 96.5942C112.099 97.0661 111.409 97.4131 110.671 97.615C109.933 97.8169 109.163 97.8696 108.405 97.77C107.646 97.6705 106.916 97.4207 106.255 97.0353C105.595 96.6499 105.018 96.1366 104.558 95.5254C104.098 94.9142 103.765 94.2175 103.578 93.476C103.391 92.7345 103.353 91.9631 103.468 91.207C103.583 90.4509 103.847 89.7252 104.245 89.0725C104.644 88.4198 105.169 87.8532 105.789 87.4058C109.392 84.7024 112.122 81.0008 113.641 76.76C115.159 72.5193 115.4 67.926 114.332 63.55C113.264 59.1739 110.935 55.2076 107.634 52.143C104.333 49.0784 100.204 47.0504 95.7609 46.3105C94.6622 46.1285 93.639 45.6344 92.8132 44.8872C91.9874 44.1399 91.3939 43.1709 91.1034 42.0958C89.4112 35.787 85.3956 30.3516 79.8624 26.8805C74.3293 23.4093 67.6881 22.1593 61.2716 23.3812C54.8551 24.603 49.1381 28.2064 45.2679 33.4682C41.3978 38.73 39.6608 45.2608 40.4057 51.75C40.5586 53.1466 40.2 54.5512 39.3965 55.7036C38.593 56.856 37.399 57.6781 36.0357 58.0175C32.7053 58.8583 29.7015 60.6735 27.4086 63.231C25.1157 65.7885 23.6379 68.9719 23.1643 72.374C22.6908 75.776 23.2429 79.242 24.7502 82.3285C26.2575 85.415 28.6513 87.9816 31.6254 89.7C32.301 90.0666 32.8961 90.5648 33.3758 91.1653C33.8555 91.7658 34.2099 92.4564 34.4181 93.1962C34.6263 93.9361 34.6841 94.7101 34.588 95.4726C34.4919 96.2352 34.244 96.9707 33.8588 97.6358C33.4736 98.3009 32.959 98.882 32.3453 99.3447C31.7317 99.8075 31.0316 100.143 30.2862 100.33C29.5409 100.518 28.7655 100.554 28.006 100.437C27.2464 100.319 26.518 100.051 25.8639 99.6475C21.2565 96.9866 17.4779 93.0994 14.9486 88.4185C12.4193 83.7376 11.2385 78.4466 11.5377 73.1345C11.8369 67.8223 13.6043 62.6974 16.6432 58.3301C19.6822 53.9628 23.8734 50.5245 28.7504 48.3978C28.876 38.5682 32.869 29.1839 39.8646 22.2776C46.8602 15.3713 56.2951 11.4992 66.1254 11.5ZM51.7504 74.75C53.2754 74.75 54.738 75.3558 55.8163 76.4341C56.8946 77.5125 57.5004 78.975 57.5004 80.5V86.25C57.5004 87.775 56.8946 89.2375 55.8163 90.3159C54.738 91.3942 53.2754 92 51.7504 92C50.2254 92 48.7629 91.3942 47.6846 90.3159C46.6062 89.2375 46.0004 87.775 46.0004 86.25V80.5C46.0004 78.975 46.6062 77.5125 47.6846 76.4341C48.7629 75.3558 50.2254 74.75 51.7504 74.75ZM86.2504 74.75C87.6588 74.7502 89.0181 75.2672 90.0706 76.2031C91.123 77.139 91.7954 78.4286 91.9602 79.8273L92.0004 80.5V86.25C91.9988 87.7156 91.4376 89.1252 90.4316 90.1909C89.4255 91.2566 88.0505 91.8979 86.5874 91.9837C85.1244 92.0696 83.6838 91.5936 82.5599 90.653C81.436 89.7123 80.7138 88.378 80.5407 86.9227L80.5004 86.25V80.5C80.5004 78.975 81.1062 77.5125 82.1846 76.4341C83.2629 75.3558 84.7254 74.75 86.2504 74.75Z" fill="white"/>
</svg>
