<svg width="162" height="162" viewBox="0 0 162 162" fill="none" xmlns="http://www.w3.org/2000/svg">
<g clip-path="url(#clip0_494_28712)">
<path d="M96.5769 0C82.3085 0 70.4825 8.05639 63.2797 19.278C61.9338 19.0911 60.6565 18.6923 59.1923 18.6923C43.6029 18.6923 31.1538 29.5027 27.0665 43.8085C12.1251 44.3631 0 56.5816 0 71.6539C0 87.0625 12.6298 99.6923 28.0385 99.6923H127.731C146.585 99.6923 162 84.2774 162 65.4231C162 49.3788 150.648 36.3752 135.712 32.7115C131.986 14.1999 116.142 0 96.5769 0ZM96.5769 12.4615C103.605 12.4422 110.38 15.0803 115.544 19.847C120.709 24.6138 123.88 31.1566 124.422 38.1635L125.002 43.4222L130.067 43.8085C135.415 44.3569 140.368 46.872 143.966 50.8659C147.563 54.8597 149.55 60.0476 149.538 65.4231C149.538 77.5357 139.843 87.2308 127.731 87.2308H28.0385C25.9894 87.2432 23.9583 86.8487 22.0628 86.0703C20.1673 85.2919 18.4452 84.145 16.9963 82.6961C15.5473 81.2471 14.4004 79.525 13.622 77.6295C12.8436 75.734 12.4491 73.7029 12.4615 71.6539C12.4482 69.4073 12.9238 67.1847 13.8556 65.1403C14.7873 63.096 16.1527 61.2789 17.8571 59.8152C19.5615 58.3515 21.564 57.2763 23.7256 56.6641C25.8873 56.0519 28.1562 55.9175 30.375 56.2701L36.9983 57.4415L37.5778 50.8182C38.0811 45.436 40.5766 40.4359 44.5751 36.7982C48.5736 33.1605 53.7867 31.1475 59.1923 31.1538C60.8123 31.1538 62.4946 31.3221 64.2579 31.7395L69.1179 32.9047L71.2675 28.431C73.5412 23.6459 77.1269 19.6047 81.6074 16.7776C86.0879 13.9506 91.2791 12.4538 96.5769 12.4615ZM119.556 104.951C118.979 105.106 118.455 105.418 118.045 105.853C117.635 106.287 117.353 106.827 117.231 107.413C117.11 107.998 117.153 108.606 117.357 109.168C117.561 109.73 117.916 110.224 118.385 110.596L125.98 118.191H114.877C114.437 118.211 114.006 118.317 113.608 118.504C113.211 118.692 112.854 118.956 112.56 119.283C112.265 119.609 112.038 119.991 111.893 120.406C111.747 120.821 111.686 121.26 111.712 121.699C111.738 122.138 111.851 122.568 112.044 122.963C112.238 123.357 112.508 123.71 112.839 123.999C113.17 124.288 113.556 124.509 113.973 124.648C114.39 124.787 114.831 124.842 115.269 124.809H125.98L118.385 132.404C118.078 132.711 117.834 133.075 117.668 133.476C117.502 133.877 117.417 134.306 117.417 134.74C117.417 135.174 117.502 135.604 117.668 136.005C117.834 136.406 118.078 136.77 118.385 137.077C118.691 137.384 119.056 137.627 119.457 137.793C119.858 137.959 120.287 138.045 120.721 138.045C121.155 138.045 121.585 137.959 121.986 137.793C122.387 137.627 122.751 137.384 123.058 137.077L130.653 129.482V140.192C130.653 141.07 131.002 141.911 131.622 142.532C132.243 143.152 133.084 143.501 133.962 143.501C134.839 143.501 135.681 143.152 136.301 142.532C136.921 141.911 137.27 141.07 137.27 140.192V129.482L144.865 137.077C145.172 137.384 145.536 137.627 145.937 137.793C146.338 137.959 146.768 138.045 147.202 138.045C147.636 138.045 148.066 137.959 148.466 137.793C148.867 137.627 149.232 137.384 149.538 137.077C149.845 136.77 150.089 136.406 150.255 136.005C150.421 135.604 150.506 135.174 150.506 134.74C150.506 134.306 150.421 133.877 150.255 133.476C150.089 133.075 149.845 132.711 149.538 132.404L141.943 124.809H152.654C153.531 124.809 154.373 124.46 154.993 123.839C155.614 123.219 155.962 122.377 155.962 121.5C155.962 120.623 155.614 119.781 154.993 119.161C154.373 118.54 153.531 118.191 152.654 118.191H141.943L149.538 110.596C150.044 110.151 150.398 109.56 150.551 108.904C150.704 108.247 150.647 107.56 150.39 106.938C150.132 106.315 149.686 105.789 149.115 105.433C148.543 105.077 147.874 104.908 147.202 104.951C146.767 104.948 146.336 105.033 145.935 105.2C145.533 105.367 145.17 105.613 144.865 105.923L137.27 113.518V109.038C137.287 108.566 137.2 108.095 137.014 107.659C136.829 107.224 136.55 106.834 136.198 106.519C135.845 106.203 135.427 105.969 134.974 105.832C134.521 105.696 134.043 105.661 133.575 105.73H133.183C132.439 105.896 131.778 106.319 131.316 106.924C130.853 107.529 130.619 108.278 130.653 109.038V113.518L123.058 105.923C122.709 105.56 122.282 105.284 121.808 105.115C121.334 104.946 120.828 104.89 120.329 104.951H119.556ZM33.1041 105.73C32.4327 105.969 31.8588 106.423 31.4713 107.021C31.0838 107.619 30.9044 108.328 30.9607 109.038V119.749L23.3654 112.154C23.0171 111.791 22.5892 111.515 22.1155 111.346C21.6419 111.177 21.1354 111.121 20.6363 111.182H20.25C19.6428 111.283 19.0772 111.556 18.6199 111.968C18.1625 112.38 17.8325 112.914 17.6688 113.507C17.5051 114.1 17.5144 114.728 17.6958 115.316C17.8771 115.905 18.2229 116.429 18.6923 116.827L26.2876 124.422H15.1844C14.7363 124.428 14.294 124.525 13.8843 124.707C13.4746 124.888 13.106 125.151 12.8008 125.479C12.4956 125.807 12.2601 126.194 12.1086 126.616C11.957 127.038 11.8926 127.486 11.9192 127.933C11.9457 128.381 12.0627 128.818 12.2631 129.219C12.4635 129.62 12.7431 129.976 13.085 130.266C13.4269 130.555 13.824 130.773 14.2523 130.905C14.6806 131.037 15.1312 131.08 15.5769 131.033H26.2876L18.6923 138.635C18.3855 138.941 18.1421 139.306 17.976 139.707C17.81 140.108 17.7245 140.537 17.7245 140.971C17.7245 141.405 17.81 141.835 17.976 142.236C18.1421 142.637 18.3855 143.001 18.6923 143.308C18.9991 143.615 19.3634 143.858 19.7643 144.024C20.1652 144.19 20.5949 144.276 21.0288 144.276C21.4628 144.276 21.8925 144.19 22.2934 144.024C22.6943 143.858 23.0585 143.615 23.3654 143.308L30.9607 135.712V146.423C30.9607 147.301 31.3093 148.142 31.9297 148.763C32.5502 149.383 33.3918 149.732 34.2692 149.732C35.1467 149.732 35.9882 149.383 36.6087 148.763C37.2292 148.142 37.5778 147.301 37.5778 146.423V135.712L45.1731 143.308C45.4799 143.615 45.8442 143.858 46.2451 144.024C46.646 144.19 47.0757 144.276 47.5096 144.276C47.9436 144.276 48.3732 144.19 48.7741 144.024C49.175 143.858 49.5393 143.615 49.8462 143.308C50.153 143.001 50.3964 142.637 50.5624 142.236C50.7285 141.835 50.814 141.405 50.814 140.971C50.814 140.537 50.7285 140.108 50.5624 139.707C50.3964 139.306 50.153 138.941 49.8462 138.635L42.2508 131.039H52.9615C53.839 131.039 54.6806 130.691 55.301 130.07C55.9215 129.45 56.2701 128.608 56.2701 127.731C56.2701 126.853 55.9215 126.012 55.301 125.391C54.6806 124.771 53.839 124.422 52.9615 124.422H42.2508L49.8462 116.827C50.3521 116.382 50.7061 115.79 50.8588 115.134C51.0115 114.478 50.955 113.791 50.6974 113.168C50.4398 112.546 49.9939 112.02 49.4223 111.664C48.8506 111.307 48.1818 111.139 47.5096 111.182C47.0749 111.179 46.6439 111.263 46.2425 111.43C45.8411 111.597 45.4774 111.843 45.1731 112.154L37.5778 119.749V109.038C37.5947 108.566 37.5074 108.095 37.322 107.659C37.1367 107.224 36.8579 106.834 36.5053 106.519C36.1528 106.203 35.7351 105.969 35.2819 105.832C34.8288 105.696 34.3511 105.661 33.8829 105.73H33.0978H33.1041ZM82.9502 118.191C82.2788 118.43 81.7049 118.884 81.3175 119.482C80.93 120.08 80.7505 120.79 80.8068 121.5V132.211L73.2115 124.615C72.8633 124.253 72.4354 123.976 71.9617 123.807C71.488 123.639 70.9816 123.583 70.4825 123.643C69.8437 123.681 69.2304 123.907 68.7206 124.294C68.2107 124.68 67.8273 125.21 67.6189 125.815C67.4106 126.42 67.3868 127.073 67.5505 127.691C67.7142 128.31 68.0581 128.866 68.5385 129.288L76.1338 136.884H65.0305C64.5912 136.903 64.1601 137.009 63.7623 137.197C63.3645 137.384 63.0079 137.648 62.7134 137.975C62.4188 138.301 62.1922 138.683 62.0466 139.098C61.9011 139.513 61.8395 139.953 61.8655 140.392C61.8916 140.831 62.0047 141.26 62.1983 141.655C62.3919 142.05 62.6621 142.402 62.9932 142.691C63.3243 142.981 63.7096 143.201 64.1268 143.34C64.5439 143.479 64.9846 143.534 65.4231 143.501H76.1338L68.5385 151.096C68.2316 151.403 67.9882 151.767 67.8222 152.168C67.6561 152.569 67.5706 152.999 67.5706 153.433C67.5706 153.867 67.6561 154.296 67.8222 154.697C67.9882 155.098 68.2316 155.462 68.5385 155.769C68.8453 156.076 69.2096 156.319 69.6105 156.486C70.0114 156.652 70.4411 156.737 70.875 156.737C71.3089 156.737 71.7386 156.652 72.1395 156.486C72.5404 156.319 72.9047 156.076 73.2115 155.769L80.8068 148.174V158.885C80.8068 159.762 81.1554 160.604 81.7759 161.224C82.3964 161.845 83.2379 162.193 84.1154 162.193C84.9929 162.193 85.8344 161.845 86.4549 161.224C87.0753 160.604 87.4239 159.762 87.4239 158.885V148.174L95.0192 155.769C95.3261 156.076 95.6903 156.319 96.0912 156.486C96.4921 156.652 96.9218 156.737 97.3558 156.737C97.7897 156.737 98.2194 156.652 98.6203 156.486C99.0212 156.319 99.3855 156.076 99.6923 155.769C99.9991 155.462 100.243 155.098 100.409 154.697C100.575 154.296 100.66 153.867 100.66 153.433C100.66 152.999 100.575 152.569 100.409 152.168C100.243 151.767 99.9991 151.403 99.6923 151.096L92.097 143.501H102.808C103.685 143.501 104.527 143.152 105.147 142.532C105.768 141.911 106.116 141.07 106.116 140.192C106.116 139.315 105.768 138.473 105.147 137.853C104.527 137.232 103.685 136.884 102.808 136.884H92.097L99.6923 129.288C100.198 128.844 100.552 128.252 100.705 127.596C100.858 126.94 100.801 126.252 100.544 125.63C100.286 125.008 99.8401 124.481 99.2684 124.125C98.6968 123.769 98.028 123.6 97.3558 123.643C96.921 123.64 96.4901 123.725 96.0887 123.892C95.6873 124.059 95.3236 124.305 95.0192 124.615L87.4239 132.211V121.5C87.441 121.026 87.3536 120.555 87.1679 120.119C86.9822 119.683 86.7028 119.293 86.3495 118.978C85.9962 118.662 85.5778 118.428 85.1238 118.292C84.6698 118.156 84.1915 118.122 83.7228 118.191H82.9502Z" fill="white"/>
</g>
<defs>
<clipPath id="clip0_494_28712">
<rect width="162" height="162" fill="white"/>
</clipPath>
</defs>
</svg>
