<svg width="126" height="128" viewBox="0 0 126 128" fill="none" xmlns="http://www.w3.org/2000/svg">
<path fill-rule="evenodd" clip-rule="evenodd" d="M63 85.3333C68.5695 85.3333 73.911 83.0857 77.8492 79.085C81.7875 75.0842 84 69.658 84 64C84 58.342 81.7875 52.9158 77.8492 48.9151C73.911 44.9143 68.5695 42.6667 63 42.6667C57.4305 42.6667 52.089 44.9143 48.1508 48.9151C44.2125 52.9158 42 58.342 42 64C42 69.658 44.2125 75.0842 48.1508 79.085C52.089 83.0857 57.4305 85.3333 63 85.3333ZM63 96C71.3543 96 79.3665 92.6286 85.2739 86.6274C91.1813 80.6263 94.5 72.4869 94.5 64C94.5 55.5131 91.1813 47.3738 85.2739 41.3726C79.3665 35.3714 71.3543 32 63 32C54.6457 32 46.6335 35.3714 40.7261 41.3726C34.8187 47.3738 31.5 55.5131 31.5 64C31.5 72.4869 34.8187 80.6263 40.7261 86.6274C46.6335 92.6286 54.6457 96 63 96ZM57.75 0H68.25V21.664C64.7638 21.2178 61.2362 21.2178 57.75 21.664V0ZM37.2435 30.2933L22.1655 14.976L14.742 22.5173L29.82 37.8347C31.9743 35.0154 34.4683 32.4818 37.2435 30.2933ZM21.3255 58.6667H0V69.3333H21.3255C20.8863 65.7918 20.8863 62.2082 21.3255 58.6667ZM29.82 90.1653L14.742 105.483L22.1655 113.024L37.2435 97.7067C34.4683 95.5182 31.9743 92.9846 29.82 90.1653ZM57.75 106.336V128H68.25V106.336C64.7638 106.782 61.2362 106.782 57.75 106.336ZM88.7565 97.7067L103.835 113.024L111.258 105.483L96.18 90.1653C94.0257 92.9846 91.5317 95.5182 88.7565 97.7067ZM104.674 69.3333H126V58.6667H104.674C105.114 62.2082 105.114 65.7918 104.674 69.3333ZM96.18 37.8347L111.258 22.5173L103.835 14.976L88.7565 30.2933C91.5285 32.48 94.0223 35.0187 96.18 37.8347Z" fill="white"/>
</svg>
