<svg width="20" height="22" viewBox="0 0 20 22" fill="none" xmlns="http://www.w3.org/2000/svg">
<path d="M11.73 20.1807C11.5542 20.4852 11.3018 20.738 10.9982 20.9136C10.6946 21.0893 10.3504 21.1818 10 21.1818C9.64962 21.1818 9.30539 21.0893 9.00177 20.9136C8.69816 20.738 8.44581 20.4852 8.27 20.1807M16 7.5224C16 5.81755 15.368 4.18201 14.243 2.97645C13.118 1.7709 11.59 1.09277 10 1.09277C8.41 1.09277 6.883 1.76989 5.757 2.97645C4.632 4.18201 4 5.81755 4 7.5224C4 15.024 1 17.1668 1 17.1668H19C19 17.1668 16 15.024 16 7.5224Z" stroke="black" stroke-width="1.5" stroke-linecap="round" stroke-linejoin="round"/>
</svg>
