<svg width="26" height="26" viewBox="0 0 26 26" fill="none" xmlns="http://www.w3.org/2000/svg">
<path d="M12.8333 11.883C14.5351 11.883 16.1672 12.559 17.3706 13.7624C18.574 14.9658 19.25 16.5979 19.25 18.2997V25.9997H16.6833V18.2997C16.6834 17.3177 16.3082 16.3727 15.6345 15.6582C14.9608 14.9437 14.0395 14.5137 13.0592 14.4561L12.8333 14.4497C11.8513 14.4496 10.9064 14.8248 10.1919 15.4985C9.47741 16.1722 9.04736 17.0935 8.98975 18.0738L8.98333 18.2997V25.9997H6.41667V18.2997C6.41667 16.5979 7.09271 14.9658 8.29606 13.7624C9.49942 12.559 11.1315 11.883 12.8333 11.883ZM4.49167 15.733C4.851 15.7339 5.1975 15.7741 5.53117 15.8536C5.31255 16.5071 5.18263 17.1869 5.14488 17.8749L5.13333 18.2997V18.41C4.98579 18.3574 4.83237 18.3229 4.67647 18.3074L4.49167 18.2997C4.01333 18.2997 3.55213 18.4777 3.19793 18.7992C2.84372 19.1207 2.62189 19.5625 2.57565 20.0386L2.56667 20.2247V25.9997H0V20.2247C0 19.0334 0.473228 17.8909 1.31558 17.0486C2.15793 16.2062 3.3004 15.733 4.49167 15.733ZM21.175 15.733C22.3663 15.733 23.5087 16.2062 24.3511 17.0486C25.1934 17.8909 25.6667 19.0334 25.6667 20.2247V25.9997H23.1V20.2247C23.1 19.7463 22.9219 19.2851 22.6005 18.9309C22.279 18.5767 21.8372 18.3549 21.3611 18.3087L21.175 18.2997C20.9491 18.3005 20.7352 18.3369 20.5333 18.4088V18.2997C20.5333 17.445 20.3947 16.6236 20.1381 15.8562C20.4692 15.7754 20.8182 15.733 21.175 15.733ZM4.49167 8.03301C5.34257 8.03301 6.15862 8.37103 6.7603 8.97271C7.36198 9.57439 7.7 10.3904 7.7 11.2413C7.7 12.0922 7.36198 12.9083 6.7603 13.51C6.15862 14.1117 5.34257 14.4497 4.49167 14.4497C3.64076 14.4497 2.82471 14.1117 2.22303 13.51C1.62135 12.9083 1.28333 12.0922 1.28333 11.2413C1.28333 10.3904 1.62135 9.57439 2.22303 8.97271C2.82471 8.37103 3.64076 8.03301 4.49167 8.03301ZM21.175 8.03301C22.0259 8.03301 22.842 8.37103 23.4436 8.97271C24.0453 9.57439 24.3833 10.3904 24.3833 11.2413C24.3833 12.0922 24.0453 12.9083 23.4436 13.51C22.842 14.1117 22.0259 14.4497 21.175 14.4497C20.3241 14.4497 19.508 14.1117 18.9064 13.51C18.3047 12.9083 17.9667 12.0922 17.9667 11.2413C17.9667 10.3904 18.3047 9.57439 18.9064 8.97271C19.508 8.37103 20.3241 8.03301 21.175 8.03301ZM4.49167 10.5997C4.32149 10.5997 4.15828 10.6673 4.03794 10.7876C3.9176 10.9079 3.85 11.0712 3.85 11.2413C3.85 11.4115 3.9176 11.5747 4.03794 11.6951C4.15828 11.8154 4.32149 11.883 4.49167 11.883C4.66185 11.883 4.82506 11.8154 4.94539 11.6951C5.06573 11.5747 5.13333 11.4115 5.13333 11.2413C5.13333 11.0712 5.06573 10.9079 4.94539 10.7876C4.82506 10.6673 4.66185 10.5997 4.49167 10.5997ZM21.175 10.5997C21.0048 10.5997 20.8416 10.6673 20.7213 10.7876C20.6009 10.9079 20.5333 11.0712 20.5333 11.2413C20.5333 11.4115 20.6009 11.5747 20.7213 11.6951C20.8416 11.8154 21.0048 11.883 21.175 11.883C21.3452 11.883 21.5084 11.8154 21.6287 11.6951C21.7491 11.5747 21.8167 11.4115 21.8167 11.2413C21.8167 11.0712 21.7491 10.9079 21.6287 10.7876C21.5084 10.6673 21.3452 10.5997 21.175 10.5997ZM12.8333 0.333008C14.1948 0.333008 15.5005 0.87384 16.4631 1.83653C17.4258 2.79921 17.9667 4.1049 17.9667 5.46634C17.9667 6.82779 17.4258 8.13347 16.4631 9.09616C15.5005 10.0588 14.1948 10.5997 12.8333 10.5997C11.4719 10.5997 10.1662 10.0588 9.20352 9.09616C8.24083 8.13347 7.7 6.82779 7.7 5.46634C7.7 4.1049 8.24083 2.79921 9.20352 1.83653C10.1662 0.87384 11.4719 0.333008 12.8333 0.333008ZM12.8333 2.89967C12.1526 2.89967 11.4998 3.17009 11.0184 3.65143C10.5371 4.13278 10.2667 4.78562 10.2667 5.46634C10.2667 6.14706 10.5371 6.79991 11.0184 7.28125C11.4998 7.76259 12.1526 8.03301 12.8333 8.03301C13.5141 8.03301 14.1669 7.76259 14.6482 7.28125C15.1296 6.79991 15.4 6.14706 15.4 5.46634C15.4 4.78562 15.1296 4.13278 14.6482 3.65143C14.1669 3.17009 13.5141 2.89967 12.8333 2.89967Z" fill="#0D99FF"/>
</svg>
