<svg width="21" height="21" viewBox="0 0 21 21" fill="none" xmlns="http://www.w3.org/2000/svg">
<path d="M3.61171 10.4376C3.27482 10.1029 3.0079 9.70456 2.82651 9.26571C2.64512 8.82686 2.55288 8.35629 2.55517 7.88144C2.55517 6.92104 2.93669 5.99997 3.6158 5.32086C4.29491 4.64175 5.21597 4.26024 6.17638 4.26024C7.52261 4.26024 8.69844 4.993 9.32043 6.08362H10.2747C10.5909 5.52898 11.0485 5.06805 11.6008 4.74776C12.153 4.42746 12.7803 4.25925 13.4188 4.26024C14.3792 4.26024 15.3003 4.64175 15.9794 5.32086C16.6585 5.99997 17.04 6.92104 17.04 7.88144C17.04 8.87833 16.614 9.79855 15.9834 10.4376L9.79758 16.6149L3.61171 10.4376ZM16.5799 11.0425C17.3893 10.2246 17.892 9.11691 17.892 7.88144C17.892 6.69506 17.4207 5.55727 16.5818 4.71837C15.7429 3.87948 14.6052 3.40819 13.4188 3.40819C11.9277 3.40819 10.607 4.13243 9.79758 5.25713C9.38442 4.68328 8.84039 4.2162 8.21062 3.89465C7.58085 3.57309 6.88349 3.40633 6.17638 3.40819C4.99 3.40819 3.85221 3.87948 3.01331 4.71837C2.17441 5.55727 1.70313 6.69506 1.70312 7.88144C1.70313 9.11691 2.20583 10.2246 3.01528 11.0425L9.79758 17.8248L16.5799 11.0425Z" fill="black"/>
</svg>
