<svg width="22" height="22" viewBox="0 0 22 22" fill="none" xmlns="http://www.w3.org/2000/svg">
<path d="M11 21.5C8.31667 21.5 5.97867 20.6106 3.986 18.8318C1.99333 17.0531 0.850778 14.8313 0.558333 12.1667H2.95C3.22222 14.1889 4.12172 15.8611 5.6485 17.1833C7.17528 18.5056 8.95911 19.1667 11 19.1667C13.275 19.1667 15.2051 18.3745 16.7902 16.7902C18.3753 15.2058 19.1674 13.2758 19.1667 11C19.1659 8.72422 18.3737 6.79456 16.7902 5.211C15.2066 3.62744 13.2766 2.83489 11 2.83333C9.65833 2.83333 8.40417 3.14444 7.2375 3.76667C6.07083 4.38889 5.08889 5.24444 4.29167 6.33333H7.5V8.66667H0.5V1.66667H2.83333V4.40833C3.825 3.16389 5.03561 2.20139 6.46517 1.52083C7.89472 0.840278 9.40633 0.5 11 0.5C12.4583 0.5 13.8245 0.777278 15.0985 1.33183C16.3725 1.88639 17.4808 2.63461 18.4235 3.5765C19.3662 4.51839 20.1148 5.62672 20.6693 6.9015C21.2239 8.17628 21.5008 9.54245 21.5 11C21.4992 12.4576 21.2223 13.8237 20.6693 15.0985C20.1163 16.3733 19.3677 17.4816 18.4235 18.4235C17.4793 19.3654 16.3709 20.114 15.0985 20.6693C13.8261 21.2247 12.4599 21.5016 11 21.5ZM14.2667 15.9L9.83333 11.4667V5.16667H12.1667V10.5333L15.9 14.2667L14.2667 15.9Z" fill="#0D99FF"/>
</svg>
