<svg width="18" height="20" viewBox="0 0 18 20" fill="none" xmlns="http://www.w3.org/2000/svg">
<path d="M3.35134 3.34226C4.86216 1.8939 6.89625 1.08731 9.01159 1.09776C11.1269 1.10821 13.1526 1.93486 14.6484 3.39808C16.1442 4.86129 16.9892 6.84284 16.9999 8.91211C17.0106 10.9814 16.186 12.9712 14.7054 14.4491L10.4618 18.6003C10.0816 18.9721 9.56601 19.181 9.02838 19.181C8.49076 19.181 7.97515 18.9721 7.59493 18.6003L3.35134 14.4491C1.84579 12.9762 1 10.9786 1 8.89568C1 6.81278 1.84579 4.81517 3.35134 3.34226Z" stroke="#0D99FF" stroke-width="1.5" stroke-linejoin="round"/>
<path d="M9.02956 11.871C10.7092 11.871 12.0708 10.539 12.0708 8.89595C12.0708 7.25287 10.7092 5.9209 9.02956 5.9209C7.34991 5.9209 5.98828 7.25287 5.98828 8.89595C5.98828 10.539 7.34991 11.871 9.02956 11.871Z" stroke="#0D99FF" stroke-width="1.5" stroke-linecap="round" stroke-linejoin="round"/>
</svg>
