<svg width="20" height="20" viewBox="0 0 20 20" fill="none" xmlns="http://www.w3.org/2000/svg">
<path d="M9.9358 14.2323C10.1186 14.2323 10.2728 14.1695 10.3984 14.044C10.5239 13.9184 10.5867 13.7642 10.5867 13.5814C10.5867 13.3986 10.5234 13.2444 10.3967 13.1188C10.2712 12.9933 10.117 12.9305 9.93415 12.9305C9.75133 12.9305 9.59714 12.9935 9.47158 13.1196C9.34603 13.2458 9.28353 13.3999 9.28408 13.5822C9.28408 13.765 9.34685 13.9192 9.47241 14.0448C9.59906 14.1703 9.75353 14.2331 9.9358 14.2331M9.50875 11.4973H10.3067C10.3276 11.1383 10.3951 10.8464 10.5091 10.6218C10.6231 10.3976 10.8574 10.1113 11.212 9.76271C11.581 9.39431 11.8552 9.06417 12.0347 8.77231C12.2142 8.48045 12.3043 8.14289 12.3048 7.75962C12.3048 7.10871 12.0763 6.58997 11.6192 6.2034C11.1616 5.81682 10.6203 5.62353 9.99528 5.62353C9.4011 5.62353 8.89667 5.78488 8.48201 6.10758C8.06735 6.43083 7.76365 6.80199 7.57092 7.22105L8.33085 7.53577C8.46302 7.23509 8.65217 6.96939 8.89833 6.73866C9.14448 6.50737 9.49967 6.39173 9.96389 6.39173C10.4991 6.39173 10.8901 6.53876 11.1368 6.83282C11.3841 7.12689 11.5077 7.45013 11.5077 7.80257C11.5077 8.08892 11.4303 8.34444 11.2756 8.56911C11.1214 8.79434 10.9204 9.02067 10.6726 9.2481C10.1935 9.68974 9.87964 10.0642 9.73095 10.3715C9.58227 10.6788 9.5082 11.054 9.50875 11.4973ZM9.91515 17.3464C8.88759 17.3464 7.92115 17.1514 7.01583 16.7616C6.11107 16.3711 5.32387 15.8414 4.65425 15.1723C3.98462 14.5032 3.45459 13.7169 3.06416 12.8132C2.67373 11.9095 2.47852 10.9434 2.47852 9.9147C2.47852 8.88603 2.67373 7.91959 3.06416 7.01537C3.45404 6.11061 3.98297 5.32341 4.65094 4.65379C5.31892 3.98416 6.10556 3.45414 7.01088 3.0637C7.91619 2.67327 8.88263 2.47806 9.9102 2.47806C10.9378 2.47806 11.9042 2.67327 12.8095 3.0637C13.7143 3.45358 14.5015 3.98279 15.1711 4.65131C15.8407 5.31983 16.3708 6.10648 16.7612 7.01124C17.1516 7.91601 17.3468 8.88217 17.3468 9.90974C17.3468 10.9373 17.1519 11.9037 16.762 12.8091C16.3721 13.7144 15.8424 14.5016 15.1728 15.1706C14.5031 15.8397 13.7168 16.3698 12.8137 16.7607C11.9105 17.1517 10.9444 17.3469 9.91515 17.3464ZM9.91268 16.5204C11.7574 16.5204 13.32 15.8802 14.6003 14.5999C15.8807 13.3195 16.5208 11.757 16.5208 9.91222C16.5208 8.06744 15.8807 6.50489 14.6003 5.22457C13.32 3.94424 11.7574 3.30408 9.91268 3.30408C8.0679 3.30408 6.50535 3.94424 5.22502 5.22457C3.9447 6.50489 3.30453 8.06744 3.30453 9.91222C3.30453 11.757 3.9447 13.3195 5.22502 14.5999C6.50535 15.8802 8.0679 16.5204 9.91268 16.5204Z" fill="black"/>
</svg>
